<svg id="Layer_1" data-name="Layer 1" xmlns="http://www.w3.org/2000/svg" viewBox="0 0 1667.64 666.71"><defs><style>.cls-1{fill:#717171;}.cls-2{fill:#bebebe;}.cls-3{fill:#ffa61a;}</style></defs><path class="cls-1" d="M342.6,25.87l1,1Z"/><path d="M343.6,26.87v292h225v-50h-161v-242Z"/><path d="M1188.6,1.17c-5.4-1-10.6-1.6-16-.8-8.7,1.2-16.8,3.5-24,8.7a50.22,50.22,0,0,0-13.5,14.8c-20.8,34.4,9.4,78.5,48.5,73.7a48.86,48.86,0,0,0,21-7.3C1239.4,67.77,1230.6,9.07,1188.6,1.17Zm-9,66.5c-24.1,2.7-28.3-34.5-4-37.3C1199.7,27.57,1203.8,65,1179.6,67.67Z"/><path d="M848.6,130.87c5.1,8.1,11.7,15.4,17.6,23q15.6,20.1,31.4,40l12.6,16c1.6,2,4.7,4.8,4.8,7.6.1,3-3.5,6.3-5.2,8.4-4.8,6-9.6,11.9-14.3,18-14,18.2-28.8,35.8-42.8,54-5.4,7-11.5,13.5-16.1,21h43c5.9,0,14.4,1.5,20-.6,6.1-2.3,10.9-11.5,14.8-16.4,11.3-14.2,24.2-27.9,34.2-43,11.7,13.4,22.4,27.9,33.3,42,3.9,5,9,14.8,15,17.4,5,2.2,13.3.6,18.7.6h44c-4.1-9.2-12.4-17.1-18.6-25-12.8-16.4-25.5-32.7-38.4-49l-15-19c-1.8-2.2-5.5-5.5-5.4-8.6.1-2.7,3.1-5.5,4.6-7.4,4.2-5.3,8.3-10.7,12.4-16l32.7-42c5.3-6.9,12.5-13.9,15.7-22-10.8-4.6-20.8-11.4-31-17.1-3.3-1.9-8.9-6.6-12.9-5.4-4.9,1.5-9.1,9.8-12.1,13.6-9.6,12.3-19.1,24.6-28.7,37-3.1,4-6.1,8.1-9.3,12-1.2,1.5-2.9,4-5.1,4s-3.8-2.4-5.1-4c-3.2-4-6.3-8-9.5-12-9.8-12.2-19.5-24.6-29.1-37-3-3.9-7.4-12.1-12.4-13.6-3.8-1.1-8.8,3.1-12,4.9C870,118.27,858.6,123.77,848.6,130.87Z"/><path d="M1273.4,251.87c-3.4-31.8-.8-65-.8-97v-31c0-3.3.9-8.3-2.3-10.4-9.1-5.6-21.9,1.8-30.7,5.2-3.2,1.2-7.4,3.5-11,2.7-2.9-.7-5.5-3.1-8-4.6a107.49,107.49,0,0,0-16-7.8c-19.8-7.5-43.3-6.4-63,.6-47.3,16.8-67.3,67.7-64.1,114.3,2.3,33.9,14.4,66.2,45.1,84.5,17.6,10.5,45.1,17.9,65,9.5,12.8-5.4,23.7-15.8,37-20,1.8,9.9,9.5,18.2,18,23.1,2.8,1.6,6.6,4.1,10,3.2,5-1.3,10.1-7.1,14-10.4,10-8.3,23.3-16.4,31-26.9C1282.2,282,1275,266.77,1273.4,251.87Zm-57.8,6.8c-3.8,6.4-17.2,8.7-24,9.8-13.3,2.1-28.5.3-38.8-9-12.6-11.4-16.2-29.3-16.2-45.5,0-21.6,3-46.3,25-56.9,4.4-2.1,9.2-3,14-3.7a45.52,45.52,0,0,1,32,7.8c3.2,2.3,7,5,8.4,8.8,1.8,4.9.6,11.9.6,17v61C1216.6,251.17,1217.3,255.67,1215.6,258.67Z"/><path d="M804.9,279.77c-13.3-14.7-10.3-36.6-10.3-54.9v-96c0-3.4,1.1-9.5-1.6-12.1-8.2-7.9-24.9,1.8-33.4,4.8-3.1,1.1-6.7,3.2-10,2.1-7.2-2.3-13.8-8.5-21-11.4-16.1-6.5-35-7.2-52-4-57.8,10.9-82.9,71.3-77.2,124.5,4.2,38.8,25.2,75.9,65.2,86.8,8.8,2.4,18.8,4.3,28,4.1,18.8-.4,37.3-14.8,53-23.9,2.3,9.6,8.8,17.2,17,22.6,3.1,2.1,7.1,4.6,11,4,5.2-.8,10.1-6.6,14-9.8,10.1-8.4,23-16.3,31-26.8C813.8,287,808.7,284.07,804.9,279.77Zm-67.3-18.4c-3.6,5.5-15.9,7.9-22,9.1-5.6,1-11.3,1.8-17,1.2-5.5-.7-11-1.6-16-4.1C660.2,256.27,657,228,658.5,206c1.5-21.8,9.6-45.1,34.1-49.5,12.1-2.2,25.8-.3,36,6.8,3.5,2.4,7.9,5.6,9.4,9.8,1.7,4.6.6,11.1.6,16v61C738.6,253.27,739.5,258.37,737.6,261.37Z"/><path class="cls-2" d="M568.6,267.87l1,1Z"/><path d="M854.6,340.87v231c0,12.1-.8,24.2,2.1,36,4.8,19.5,17.6,34.5,32.9,47.1,4,3.3,11.4,10.8,17,10.4,4.8-.4,8.9-6.4,12-9.4,6.2-6,12.6-12,19-17.8,4.8-4.4,10.2-8.2,13-14.2-10.3-7.4-20.2-16.6-26-28-10.6-20.5-7-47.7-7-70V341h-63m126-.1v226c0,9.9-.9,20.2.4,30,3.2,23.6,15.3,41.9,33.6,56.9,4.1,3.4,12.3,12,18,11.8,4.4-.2,8.9-6.6,12-9.3,11.2-9.8,21.2-21.4,33-30.4-3.4-4.4-8-7.3-12-11.1-6.7-6.3-13-14.2-16.4-22.9-4.9-12.3-4.6-25-4.6-38v-213Z"/><path class="cls-3" d="M229.5,412.87c-2.7-39.1-13.8-78.3-24-116-14.3-53-31.6-105.1-49.6-157-10-28.8-20.6-57.4-31.3-86-3.1-8.4-6.3-16.7-9.6-25-1.8-4.5-3-9.5-6.4-13-3.7,13.6-9.6,26.7-14.3,40-8.4,23.5-16.3,47.3-24,71-22.1,67.9-41.1,137-55.1,207C4.2,389-6.3,449,4.6,504.87c9.9,50.4,35.9,96.5,77,128.1a204.42,204.42,0,0,0,29,19.1c3.3,1.8,8.1,5.2,12,5.1s7.4-4.6,9.8-7.3c6.7-7.4,13.1-15.2,19.4-23,26.6-33.3,49.5-71.5,63.1-112C226,482,231.9,447.77,229.5,412.87Zm-57,153c-5.3,18-15.4,35.3-26.9,50-2.9,3.8-7.7,12.4-13,13-5.5.6-13.4-8.5-17-12-14.9-14.5-26.5-31.7-31.6-52-4-15.9-2.8-30.8-2.4-47,.7-27.2,2.9-54.7,10.4-81,4.2-14.8,11-28.9,17.1-43,6-13.9,11.3-28.2,17.4-42,3.4,5.1,5,11.3,7.3,17l13.9,34c6.6,16.3,14.6,32.1,19.4,49,4,14.2,4.8,29.4,6.9,44C177.4,520.07,179.5,542.07,172.5,565.87Z"/><path d="M1365.6,362.87v74h-21v41h21v78c0,19.3-.9,38.3,5,57s18.7,34.2,35,45c4.2,2.8,11.7,8.6,17,7.9,4.8-.7,9.5-7.2,13-10.3,11.3-9.8,24.9-20.7,34-32.6-21.8-9.1-36.7-29.7-39.7-53-1.5-11.4-.3-23.6-.3-35v-57h33v-41h-33v-79c-8.8,1.6-18,1.5-27,2.1C1390.3,360.87,1377.9,362.37,1365.6,362.87Z"/><path d="M536.6,362.07c-28.4-21-62.3-21.2-96-21.2h-95v321h71v-135c39.2,0,82.6,4.5,117-18.1,25.6-16.9,34-45.8,34-74.9C567.6,406.17,559.9,379.27,536.6,362.07Zm-58,122.4c-17.4,10.8-42.4,6.5-62,6.5V397c20.8,0,45.7-4.1,64,8.1C504.3,420.77,502.6,469.67,478.6,484.47Z"/><path d="M1486.6,593.87v40c0,4.1-1.5,11.8,1,15.4,2.4,3.3,9.2,5,13,6.3,12.7,4.5,25.6,6.9,39,8.5,36.8,4.4,73.1,4.6,103-20.7a70.16,70.16,0,0,0,15.7-19.4,72.07,72.07,0,0,0,7.7-22c1.2-7.1,2.2-14.8,1.3-22-1.2-9.9-3-19.2-8-28-12.8-22.3-39.6-31.3-63.7-34-13.1-1.5-28-1.3-40-7.3-6.6-3.3-12.2-10.9-9.7-18.6,3.7-11.3,19.3-14.9,29.7-15,15.9-.1,31.5,1,47,5.2,8.9,2.4,17.2,6.3,26,8.8v-57c-8.4-1.2-16.6-4.1-25-5.6-24.4-4.4-50.8-6.7-75-.3-19.3,5.1-38.2,17.2-49.5,33.8-14,20.8-14.6,52.8-1.1,74,14.1,22.2,41.2,27.4,65.6,29.8,13,1.3,29.7,2,39.8,11.5,8.9,8.4,6.3,22-2.8,29.1-5.1,4-11.7,5.5-18,6.7-21,4-46.1.2-66-6.9C1506.5,602.57,1496.8,596.87,1486.6,593.87Z"/><path d="M792.6,591.87c-6.1,2.5-11.8,6-18,8.3-32.9,12.4-84.6,21.9-108.8-11.3-6.4-8.7-9.3-18.8-12.2-29,6.8-1.6,14-1,21-1h146c0-43.9-11.5-91-50-117.3-44.2-30.1-110.7-20.7-147.8,16.4-19.9,19.9-31.2,46.9-33.1,74.8-1.7,25,.9,51.3,12.3,74,22.8,45.6,76.4,64,124.6,59.2,16.7-1.7,34.2-4,50-10,4.6-1.7,12.3-3.9,15-8.4,2.5-4.2,1-12,1-16.8ZM669.9,491.17c18.5-18.5,55.2-16.4,73.7.9,10.6,9.9,14.5,23.3,18,36.8h-108C656.2,515.17,659.6,501.47,669.9,491.17Z"/><path d="M1299.6,591.87c-7.5,2.7-14.4,7-22,9.7-35.4,12.3-89.7,20-110-20.7a71.56,71.56,0,0,1-7-22h167c0-41.4-10.6-85.1-44-112.5-45-36.9-119.9-26.6-157.8,15.5-20.3,22.5-28.1,50.4-30.1,80-3.1,44.6,18.5,90,58.9,110.7,23.9,12.3,52.6,15.5,79,13.3a206.1,206.1,0,0,0,48-9.4c5.1-1.7,12.9-3.7,16.4-8.1,3-3.7,1.6-11.1,1.6-15.6Zm-120-103.5c8.9-7.1,19.8-9.5,31-9.5,7.6,0,14.8.1,22,2.7,19.7,7,33.3,26.7,35,47.3h-107C1161.8,514.17,1167.8,497.77,1179.6,488.37Z"/></svg>